# xmcd
#
# Track frame offsets: 
#        150
#        26035
#        53060
#        65439
#        96588
#        118745
#
# Disc length: 1843 seconds
#
# Revision: 0
# Processed by: cddbd v1.5.2PL0 Copyright (c) Steve Scherf et al.
# Submitted via: ExactAudioCopy v0.99pb3
#
DISCID=52073106
DTITLE=Sirconical - But I Won't Do That EP
DYEAR=2001
DGENRE=Twisted Nerve
TTITLE0=Spank
TTITLE1=Chalm
TTITLE2=Mince Minutiae
TTITLE3=Sundays
TTITLE4=Pumpfarm
TTITLE5=Visqen
EXTD=
EXTT0=
EXTT1=
EXTT2=
EXTT3=
EXTT4=
EXTT5=
PLAYORDER=
